:SAMPLES-PER-SECOND 30
:FULLY-SPECIFIED
:DEGREES
313
root  -15.4425 34.5912 -3.06902 -121.251 -1.98018 178.95
RightUpLeg  -70.5512 -4.6855 8.71609
RightLeg  12.1735 -0.213003 -0.0310974
RightFoot  9.95495 0.0545375 -0.0601025
RightToes  -15.6734 -0.05434 -0.144555
Spine  16.3427 0.91483 2.18097
Spine1  32.1947 2.16786 3.26588
HEad  -15.5722 -8.63114 1.43553
LeftShoulder1  -1.94126e-019 -3.10601e-018 -2.51263e-017
LeftArm  -12.4246 -1.46429 -79.8087
LeftForeArm  12.7861 -32.4469 -6.31273
LeftHand  -0.467679 -2.19913 7.35549
RightShoulder  -4.96962e-017 0 -2.36833e-017
RightArm  -19.1976 1.29953 71.9865
RightForeArm  27.0127 33.0842 5.63892
RightHand  -0.283375 -2.80084 -12.3139
LeftUpLeg  -71.5262 -5.83951 5.79591
LeftLeg  14.1478 12.1546 2.22535
LeftFoot  10.7712 -0.216435 2.38307
LeftToes  -10.8601 1.31424e-006 1.14295e-007
314
root  -15.4298 34.5578 -2.98294 -121.637 -1.80675 178.953
RightUpLeg  -70.3552 -4.58682 8.53256
RightLeg  12.291 -0.247736 -0.0368228
RightFoot  9.82587 0.0546845 -0.0603429
RightToes  -15.9274 -0.0539728 -0.143995
Spine  16.2866 0.931333 2.18037
Spine1  32.0965 2.19134 3.28405
HEad  -15.8102 -8.51191 1.11355
LeftShoulder1  -1.94126e-019 -3.10601e-018 -2.51263e-017
LeftArm  -12.5274 -1.07023 -80.0429
LeftForeArm  12.7577 -32.4787 -6.32295
LeftHand  -0.470475 -2.02333 7.56068
RightShoulder  -4.96962e-017 0 -2.36833e-017
RightArm  -19.0723 1.16071 72.1579
RightForeArm  27.0963 33.0032 5.61466
RightHand  -0.288018 -2.76238 -12.3455
LeftUpLeg  -71.4033 -5.94069 5.94022
LeftLeg  14.4251 12.5344 2.35594
LeftFoot  10.6208 -0.221459 2.42864
LeftToes  -11.0957 1.31424e-006 1.14295e-007
315
root  -15.4061 34.5398 -2.87382 -121.838 -1.75687 178.852
RightUpLeg  -70.2777 -4.65908 8.55609
RightLeg  12.1552 -0.20311 -0.0295513
RightFoot  9.85382 0.0541243 -0.0506623
RightToes  -15.7608 -0.0536518 -0.143447
Spine  16.2121 0.934637 2.18362
Spine1  31.9575 2.19221 3.29878
HEad  -16.2283 -8.39276 0.948384
LeftShoulder1  -1.94126e-019 -3.10601e-018 -2.51263e-017
LeftArm  -12.5541 -0.865183 -80.2237
LeftForeArm  12.878 -32.3643 -6.28772
LeftHand  -0.475448 -2.10082 7.4959
RightShoulder  -4.96962e-017 0 -2.36833e-017
RightArm  -18.9882 1.06287 72.371
RightForeArm  27.2016 32.9122 5.5868
RightHand  -0.293772 -2.69882 -12.3116
LeftUpLeg  -71.3445 -6.04587 6.01445
LeftLeg  14.3366 12.666 2.36021
LeftFoot  10.8615 -0.228451 2.50964
LeftToes  -11.2125 1.31424e-006 1.14295e-007
316
root  -15.3995 34.5232 -2.74635 -121.98 -1.75714 178.749
RightUpLeg  -70.2769 -4.77869 8.60894
RightLeg  11.9998 -0.133799 -0.0188309
RightFoot  9.93173 0.0533609 -0.0382236
RightToes  -15.8676 -0.0533782 -0.142916
Spine  16.161 0.946939 2.21867
Spine1  31.8656 2.20166 3.37978
HEad  -16.6082 -8.35375 0.891325
LeftShoulder1  -1.94126e-019 -3.10601e-018 -2.51263e-017
LeftArm  -12.5955 -0.76129 -80.5159
LeftForeArm  13.2303 -32.3327 -6.25996
LeftHand  -0.476835 -2.16435 7.45157
RightShoulder  -4.96962e-017 0 -2.36833e-017
RightArm  -18.9418 0.97 72.4411
RightForeArm  27.1493 32.8712 5.57999
RightHand  -0.295229 -2.71485 -12.3165
LeftUpLeg  -71.3039 -6.09734 5.9765
LeftLeg  14.1258 12.5743 2.29603
LeftFoot  11.1139 -0.23217 2.54752
LeftToes  -11.555 1.31424e-006 1.14295e-007
317
root  -15.3932 34.4945 -2.61664 -122.121 -1.65669 178.734
RightUpLeg  -70.3417 -4.78392 8.63424
RightLeg  11.9641 -0.0112607 -0.000909285
RightFoot  10.048 0.0520475 -0.0180335
RightToes  -16.0308 -0.0531531 -0.14241
Spine  16.138 0.974556 2.24955
Spine1  31.8225 2.25218 3.43909
HEad  -16.8034 -8.24548 0.819183
LeftShoulder1  -1.94126e-019 -3.10601e-018 -2.51263e-017
LeftArm  -12.483 -0.610614 -80.7963
LeftForeArm  13.2415 -32.3117 -6.25364
LeftHand  -0.473243 -2.16524 7.47151
RightShoulder  -4.96962e-017 0 -2.36833e-017
RightArm  -18.7634 0.973668 72.4121
RightForeArm  27.202 32.7728 5.55345
RightHand  -0.277882 -2.92121 -12.7862
LeftUpLeg  -71.3923 -6.03494 5.9125
LeftLeg  14.2134 12.5243 2.30665
LeftFoot  11.1258 -0.23181 2.54127
LeftToes  -11.5425 1.31424e-006 1.14295e-007
